<svg width="32" height="32" viewBox="0 0 32 32" fill="#fff" xmlns="http://www.w3.org/2000/svg"><path fill-rule="evenodd" clip-rule="evenodd" d="M18.957 21.158c2.457-.237 4.612-.883 5.927-1.724l.776.992c-1.81 1.056-4.16 1.745-6.703 2.004a16.23 16.23 0 0 0 1.47 6.07h3.906a5 5 0 0 0 5-5V8a5 5 0 0 0-5-5h-3.487c-3.404 4.016-5.28 8.678-5.854 13.698h4.633c-.388 1.508-.625 2.995-.668 4.46Zm2.069-12.434h1.315v3.038h-1.315V8.724Z"></path><path fill-rule="evenodd" clip-rule="evenodd" d="M19.205 3H8.833a5 5 0 0 0-5 5v15.5a5 5 0 0 0 5 5h10.105c-.853-1.818-1.27-3.894-1.338-6.037v.053c-3.32.13-6.897-.495-9.913-2.004l.624-.991c2.93 1.379 6.292 1.853 9.288 1.724.03-1.064.142-2.135.324-3.19h-4.504C13.936 12.15 16.068 7.068 19.205 3Zm-7.812 5.724h-1.315v3.038h1.315V8.724Z"></path></svg>